<?xml version="1.0" encoding="utf-8"?>
<!-- Generator: Adobe Illustrator 26.5.0, SVG Export Plug-In . SVG Version: 6.00 Build 0)  -->
<svg version="1.1" id="레이어_1" xmlns="http://www.w3.org/2000/svg" xmlns:xlink="http://www.w3.org/1999/xlink" x="0px"
	 y="0px" viewBox="0 0 1920 1080" style="enable-background:new 0 0 1920 1080;" xml:space="preserve">
<style type="text/css">
	.st0{display:none;}
	.st1{display:inline;}
	.st2{display:inline;fill:#424242;}
	.st3{fill:#424242;}
	.st4{display:inline;fill:#FFFFFF;}
	.st5{display:inline;opacity:0.26;}
	.st6{clip-path:url(#SVGID_00000007410708532368389360000015185995220052639366_);}
	.st7{clip-path:url(#SVGID_00000043423624299849169070000000759126933003956867_);}
	.st8{display:inline;enable-background:new    ;}
	.st9{fill:#E6E6E1;}
</style>
<g id="레이어_1_00000026858884139544744060000008052443173721306038_" class="st0">
	
		<image style="overflow:visible;enable-background:new    ;" width="400" height="400" xlink:href="ill/A1D7C22E0D95F55B.jpeg"  transform="matrix(1 0 0 1 760 340)">
	</image>
</g>
<g id="레이어_2_00000181776813360291222960000014482869126850981249_" class="st0">
	<g class="st1">
		
			<image style="overflow:visible;enable-background:new    ;" width="500" height="513" xlink:href="ill/A1D7C22E0D95F55E.png"  transform="matrix(1.4088 0 0 1.4088 603.8351 192.4145)">
		</image>
	</g>
	<g class="st1">
		
			<image style="overflow:visible;enable-background:new    ;" width="496" height="511" xlink:href="ill/A1D7C22E0D95F55A.png"  transform="matrix(1.0123 0 0 1.0123 712.0256 295.1295)">
		</image>
	</g>
	<g class="st1">
		
			<image style="overflow:visible;enable-background:new    ;" width="506" height="504" xlink:href="ill/A1D7C22E0D95F555.png"  transform="matrix(0.1126 0 0 0.1126 934.601 513.3107)">
		</image>
	</g>
	<path class="st2" d="M730.7,446.7H758c0,0-24.5,55.8-23.4,105.9c1.1,50.1,33.7,108.2,33.7,108.2h-26.2c0,0-30.2-46.7-31.4-107.1
		C709.6,493.4,730.7,446.7,730.7,446.7z"/>
	<g>
		<g class="st1">
			
				<image style="overflow:visible;enable-background:new    ;" width="505" height="514" xlink:href="ill/A1D7C22E0D95F556.png"  transform="matrix(0.3972 0 0 0.3972 833.1013 283.0273)">
			</image>
		</g>
	</g>
	<g>
		<g class="st1">
			
				<image style="overflow:visible;enable-background:new    ;" width="494" height="512" xlink:href="ill/A1D7C22E0D95F554.png"  transform="matrix(0.2871 0 0 0.2871 864.5043 311.6266)">
			</image>
		</g>
	</g>
	<g>
		<g class="st1">
			
				<image style="overflow:visible;enable-background:new    ;" width="481" height="492" xlink:href="ill/A1D7C22E0D95F568.png"  transform="matrix(3.257269e-02 0 0 3.257269e-02 927.5739 373.6511)">
			</image>
		</g>
	</g>
	<path class="st3" d="M869.2,354.6h7.8c0,0-7,15.9-6.7,30.2c0.3,14.3,9.6,30.9,9.6,30.9h-7.5c0,0-8.6-13.3-8.9-30.5
		S869.2,354.6,869.2,354.6z"/>
</g>
<g id="레이어_3" class="st0">
	<path class="st4" d="M960.2,323.9c-119.9,0-217.2,97.2-217.2,217.2s97.3,217.1,217.2,217.1S1177.4,661,1177.4,541
		C1177.4,421.1,1080.2,323.9,960.2,323.9z M960.2,584.3c-23.9,0-43.3-19.4-43.3-43.3c0-23.9,19.4-43.3,43.3-43.3
		s43.3,19.4,43.3,43.3S984.1,584.3,960.2,584.3z"/>
	<g class="st5">
		<g>
			<g>
				<g>
					<defs>
						<path id="SVGID_1_" d="M960.4,494.8c-25.4,0-46,20.6-46,46s20.6,46,46,46s46-20.6,46-46C1006.5,515.4,985.9,494.8,960.4,494.8
							z M960.4,576.5c-19.7,0-35.7-16-35.7-35.7s16-35.7,35.7-35.7s35.7,16,35.7,35.7S980.2,576.5,960.4,576.5z"/>
					</defs>
					<clipPath id="SVGID_00000170992251408056971040000017852104766269680034_">
						<use xlink:href="#SVGID_1_"  style="overflow:visible;"/>
					</clipPath>
					<g style="clip-path:url(#SVGID_00000170992251408056971040000017852104766269680034_);">
						<g>
							<g>
								<g>
									<defs>
										
											<rect id="SVGID_00000142134128210059336760000006937166190160516005_" x="909.4" y="489.8" width="102.1" height="102.1"/>
									</defs>
									<clipPath id="SVGID_00000160190631346752109860000011407996284134369411_">
										<use xlink:href="#SVGID_00000142134128210059336760000006937166190160516005_"  style="overflow:visible;"/>
									</clipPath>
									<g style="clip-path:url(#SVGID_00000160190631346752109860000011407996284134369411_);">
										
											<image style="overflow:visible;enable-background:new    ;" width="214" height="213" xlink:href="ill/A1D7C22E0D95F569.jpeg"  transform="matrix(0.48 0 0 0.48 909.04 489.86)">
										</image>
									</g>
								</g>
							</g>
						</g>
					</g>
				</g>
			</g>
		</g>
	</g>
	<g class="st8">
		<g>
			<g>
				<g>
					<path id="SVGID_00000040538850359635096580000006797243109623078579_" class="st9" d="M960,308.8
						c-127.7,0-231.2,103.5-231.2,231.2S832.3,771.2,960,771.2s231.2-103.6,231.2-231.2S1087.7,308.8,960,308.8z M960,757.8
						c-119.8,0-217-97.2-217-217s97.2-217,217-217s217,97.1,217,217S1079.9,757.8,960,757.8z"/>
				</g>
			</g>
		</g>
	</g>
</g>
<g>
	<g>
		<path d="M759.7,512.6c16.2-4.8,32.6-8.8,49.5-10.4c-14.8-9-28.4-19.3-41.7-30.3c2.4-8.2,3.8-12.2,6.9-19.7
			c17.3,17.1,35.3,32,55.7,45.4c-1.8,7.1-2.6,10.8-3.5,18.5c-23.9,3.4-46.1,10.8-67.9,20.8C758.5,526.8,758.8,521.9,759.7,512.6z"/>
		<path d="M787.3,426.5c19,12.2,38.1,24.3,57.1,36.5c-2.7,4.5-4,6.8-6.3,11.7c-20.1-10.2-40.2-20.5-60.3-30.7
			C781.3,436.7,783.2,433.2,787.3,426.5z"/>
		<path d="M794.6,415.6c6.8-9.6,14.6-18.5,23.2-26.5c3.6-3.3,7.5-5.6,11.6-6.7c4-1,8.1-1.1,12-0.2s7.6,2.6,11,5.2s6.5,6,9.3,9.9
			c2.9,4.1,5,8.2,6.4,12.1c1.5,4.1,2.3,8,2.4,11.5c0.1,3.6-0.4,7.1-1.6,10.2c-1.2,3.1-3.2,6-5.9,8.7c-5.9,5.8-8.7,9-13.7,16
			C831.1,442.3,812.8,428.9,794.6,415.6z M846.3,435.9c2.2-2.5,3.4-3.7,5.7-6c1.5-1.5,2.6-3.2,3.1-5.1c0.5-1.8,0.6-3.8,0.2-5.9
			c-0.3-1.9-1-4.1-2.1-6.3c-1.1-2.2-2.5-4.2-4.2-6.3c-1.7-1.9-3.6-3.7-5.6-4.9c-2-1.2-4.2-2.1-6.4-2.4s-4.6-0.1-6.8,0.6
			s-4.4,2.2-6.4,4.2c-2.5,2.6-3.8,3.9-6.2,6.6C827.1,418.9,836.7,427.4,846.3,435.9z"/>
		<path d="M908.2,367.7c1.7,5.5,2.5,8.3,4.2,13.8c-8.9,2.4-18.1,5.7-26.4,9.7c2.3,4.5,3.4,6.8,5.7,11.3c10.1-4.7,15.4-6.6,26.2-9.5
			c1.6,5.5,2.4,8.3,4,13.8c-12.1,3.2-23.9,8-34.7,14.3c-12-19.1-24-38.1-36-57.2c16.5-9,33-15.8,51-21.2c1.6,5.5,2.5,8.3,4.1,13.9
			c-11.2,3.4-21.4,7.1-32.1,11.7c2,4,3,6,5.1,9.9C888.5,373.9,898.4,370.3,908.2,367.7z"/>
		<path d="M919.7,372.9c-1.2-4.9-1.5-9.7-0.7-14.3c0.8-4.5,2.5-8.6,5.3-12.3c2.7-3.5,6.3-6.5,10.9-8.8c4.5-2.2,9.7-3.5,15.4-3.8
			c5.7-0.2,11.1,0.7,15.8,2.5s8.8,4.6,11.7,7.9c3,3.3,5.2,7.4,6.3,11.8c1.1,4.5,1.2,9.3,0.5,14.2c-0.8,5.1-2.3,9.7-4.3,13.7
			c-2.1,4.1-4.6,7.6-7.3,10.4c-2.8,2.9-5.8,5.2-9.1,6.8c-3.3,1.6-6.7,2.5-10.5,2.7c-3.7,0.2-7.2-0.5-10.6-1.8
			c-3.5-1.4-6.7-3.4-9.6-6c-3-2.6-5.8-5.9-8.3-9.8C923,382.3,921,377.9,919.7,372.9z M935.1,370.2c0.5,3.1,1.3,5.8,2.4,8.1
			c1.1,2.4,2.5,4.5,4,6.2c1.6,1.7,3.4,2.9,5.3,3.8c1.9,0.9,4,1.3,6.3,1.2c2.2-0.1,4.3-0.7,6.2-1.7c1.8-1,3.5-2.4,4.9-4.2
			c1.4-1.8,2.6-4,3.5-6.5c0.9-2.4,1.4-5.2,1.6-8.3c0.2-2.9-0.1-5.8-0.8-8.2c-0.7-2.5-1.9-4.8-3.5-6.7c-1.6-1.9-3.6-3.4-5.9-4.4
			c-2.4-1-5.1-1.4-8-1.3s-5.6,0.8-7.8,2c-2.3,1.2-4.1,2.9-5.5,4.9s-2.3,4.4-2.8,6.9C934.7,364.4,934.6,367.3,935.1,370.2z"/>
		<path d="M1059.3,388.5c-3.2,4.8-4.9,7.3-8.1,12.1c-7.8-5-16.5-9.4-25.1-12.8c-4.4,9.9-6.6,14.8-11,24.7c-4.6-1.9-7-2.7-11.7-4.2
			c7.2-21.2,14.3-42.3,21.5-63.5c17.9,6,34,13.4,50.2,23.1c-3.3,4.8-4.9,7.2-8.2,12.1c-10-6-19.6-10.9-30.3-15.7
			c-1.8,4.1-2.7,6.1-4.5,10.2C1041.4,378.2,1050.8,383.1,1059.3,388.5z"/>
		<path d="M1096.5,383.9c-15.1,16.9-30.1,33.7-45.2,50.6c-3.8-3.3-5.8-4.8-9.8-7.7c13.4-18.1,26.9-36.3,40.3-54.4
			C1087.9,376.8,1090.8,379,1096.5,383.9z"/>
		<path d="M1105.8,392.5c5.4,5.3,7.9,8.1,12.7,14.1c-13.7,11.3-27.4,22.5-41.2,33.8c6.6,8,9.5,12.4,14.6,22
			c-5.1,2.9-7.6,4.3-12.7,7.2c-5.7-10.8-13-20.7-21.7-29.3C1073.6,424.4,1089.7,408.4,1105.8,392.5z"/>
		<path d="M1160.2,512c0.9,9.6,1.2,14.5,1.2,24.7c-22.2,0-44.5,0-66.7,0c0-6.7-0.2-9.9-0.8-16.2c11-1.3,22.1-2.7,33.1-4
			c-11.3-3.7-22.9-6.4-34.7-7.9c-0.7-4.2-1.2-6.3-2.2-10.4c9.9-6.9,19.3-14.6,28.2-22.9c-10.5,4.1-20.9,8.1-31.4,12.2
			c-1.8-5.3-2.9-7.9-5.2-12.8c20.1-10.2,40.2-20.4,60.3-30.7c3.5,7.5,5.1,11.4,7.9,19.6c-12.5,12.8-25.5,24.2-39.9,34.9
			C1127.5,501.1,1143.8,505.8,1160.2,512z"/>
	</g>
</g>
<g>
	<g>
		<path d="M1160.3,568.7c-16.2,4.8-32.6,8.8-49.5,10.4c14.8,9,28.4,19.3,41.7,30.3c-2.4,8.2-3.8,12.2-6.9,19.7
			c-17.3-17.1-35.3-32-55.7-45.4c1.8-7.1,2.6-10.8,3.5-18.5c23.9-3.4,46.1-10.8,67.9-20.8C1161.5,554.5,1161.2,559.4,1160.3,568.7z"
			/>
		<path d="M1132.6,654.8c-19-12.2-38.1-24.3-57.1-36.5c2.7-4.5,4-6.8,6.3-11.7c20.1,10.2,40.2,20.5,60.3,30.7
			C1138.6,644.6,1136.7,648.1,1132.6,654.8z"/>
		<path d="M1125.4,665.7c-6.8,9.6-14.6,18.5-23.2,26.5c-3.6,3.3-7.5,5.6-11.6,6.7c-4,1-8.1,1.1-12,0.2c-3.9-0.9-7.6-2.6-11-5.2
			c-3.4-2.6-6.5-6-9.3-9.9c-2.9-4.1-5-8.2-6.4-12.1c-1.5-4.1-2.3-8-2.4-11.5c-0.1-3.6,0.4-7.1,1.6-10.2c1.2-3.1,3.2-6,5.9-8.7
			c5.9-5.8,8.7-9,13.7-16C1088.9,639,1107.2,652.4,1125.4,665.7z M1073.6,645.3c-2.2,2.5-3.4,3.7-5.7,6c-1.5,1.5-2.6,3.2-3.1,5.1
			c-0.5,1.8-0.6,3.8-0.2,5.9c0.3,1.9,1,4.1,2.1,6.3s2.5,4.2,4.2,6.3c1.7,1.9,3.6,3.7,5.6,4.9s4.2,2.1,6.4,2.4
			c2.2,0.3,4.6,0.1,6.8-0.6c2.2-0.7,4.4-2.2,6.4-4.2c2.5-2.6,3.8-3.9,6.2-6.6C1092.9,662.4,1083.3,653.9,1073.6,645.3z"/>
		<path d="M1011.8,713.6c-1.7-5.5-2.5-8.3-4.2-13.8c8.9-2.4,18.1-5.7,26.4-9.7c-2.3-4.5-3.4-6.8-5.7-11.3
			c-10.1,4.7-15.4,6.6-26.2,9.5c-1.6-5.5-2.4-8.3-4-13.8c12.1-3.2,23.9-8,34.7-14.3c12,19.1,24,38.1,36,57.2
			c-16.5,9-33,15.8-51,21.2c-1.6-5.5-2.5-8.3-4.1-13.9c11.2-3.4,21.4-7.1,32.1-11.7c-2-4-3-6-5.1-9.9
			C1031.5,707.4,1021.6,711,1011.8,713.6z"/>
		<path d="M1000.2,708.4c1.2,4.9,1.5,9.7,0.7,14.3c-0.8,4.5-2.5,8.6-5.3,12.3c-2.7,3.5-6.3,6.5-10.9,8.8c-4.5,2.2-9.7,3.5-15.4,3.8
			c-5.7,0.2-11.1-0.7-15.8-2.5s-8.8-4.6-11.7-7.9c-3-3.3-5.2-7.4-6.3-11.8c-1.1-4.5-1.2-9.3-0.5-14.2c0.8-5.1,2.3-9.7,4.3-13.7
			c2.1-4.1,4.6-7.6,7.3-10.4c2.8-2.9,5.8-5.2,9.1-6.8s6.7-2.5,10.5-2.7c3.7-0.2,7.2,0.5,10.6,1.8c3.5,1.4,6.7,3.4,9.6,6
			c3,2.6,5.8,5.9,8.3,9.8C997,699,999,703.4,1000.2,708.4z M984.9,711.1c-0.5-3.1-1.3-5.8-2.4-8.1c-1.1-2.4-2.5-4.5-4-6.2
			c-1.6-1.7-3.4-2.9-5.3-3.8c-1.9-0.9-4-1.3-6.3-1.2c-2.2,0.1-4.3,0.7-6.2,1.7c-1.8,1-3.5,2.4-4.9,4.2s-2.6,4-3.5,6.5
			c-0.9,2.4-1.4,5.2-1.6,8.3c-0.2,2.9,0.1,5.8,0.8,8.2c0.7,2.5,1.9,4.8,3.5,6.7s3.6,3.4,5.9,4.4c2.4,1,5.1,1.4,8,1.3
			c2.9-0.1,5.6-0.8,7.8-2c2.3-1.2,4.1-2.9,5.5-4.9s2.3-4.4,2.8-6.9C985.3,716.9,985.3,714,984.9,711.1z"/>
		<path d="M860.7,692.8c3.2-4.8,4.9-7.3,8.1-12.1c7.8,5,16.5,9.4,25.1,12.8c4.4-9.9,6.6-14.8,11-24.7c4.6,1.9,7,2.7,11.7,4.2
			c-7.2,21.2-14.3,42.3-21.5,63.5c-17.9-6-34-13.4-50.2-23.1c3.3-4.8,4.9-7.2,8.2-12.1c10,6,19.6,10.9,30.3,15.7
			c1.8-4.1,2.7-6.1,4.5-10.2C878.6,703,869.2,698.2,860.7,692.8z"/>
		<path d="M823.5,697.3c15.1-16.9,30.1-33.7,45.2-50.6c3.8,3.3,5.8,4.8,9.8,7.7c-13.4,18.1-26.9,36.3-40.3,54.4
			C832.1,704.5,829.2,702.2,823.5,697.3z"/>
		<path d="M814.2,688.7c-5.4-5.3-7.9-8.1-12.7-14.1c13.7-11.3,27.4-22.5,41.2-33.8c-6.6-8-9.5-12.4-14.6-22
			c5.1-2.9,7.6-4.3,12.7-7.2c5.7,10.8,13,20.7,21.7,29.3C846.4,656.9,830.3,672.8,814.2,688.7z"/>
		<path d="M759.8,569.3c-0.9-9.6-1.2-14.5-1.2-24.7c22.2,0,44.5,0,66.7,0c0,6.7,0.2,9.9,0.8,16.2c-11,1.3-22.1,2.7-33.1,4
			c11.3,3.7,22.9,6.4,34.7,7.9c0.7,4.2,1.2,6.3,2.2,10.4c-9.9,6.9-19.3,14.6-28.2,22.9c10.5-4.1,20.9-8.1,31.4-12.2
			c1.8,5.3,2.9,7.9,5.2,12.8c-20.1,10.2-40.2,20.4-60.3,30.7c-3.5-7.5-5.1-11.4-7.9-19.6c12.5-12.8,25.5-24.2,39.9-34.9
			C792.5,580.2,776.2,575.4,759.8,569.3z"/>
	</g>
</g>
</svg>
