<?xml version="1.0" encoding="utf-8"?>
<!-- Generator: Adobe Illustrator 26.5.0, SVG Export Plug-In . SVG Version: 6.00 Build 0)  -->
<svg version="1.1" id="레이어_1" xmlns="http://www.w3.org/2000/svg" xmlns:xlink="http://www.w3.org/1999/xlink" x="0px"
	 y="0px" viewBox="0 0 1920 1080" style="enable-background:new 0 0 1920 1080;" xml:space="preserve">
<style type="text/css">
	.st0{display:none;}
	.st1{display:inline;}
	.st2{display:inline;fill:#424242;}
	.st3{display:inline;fill:#FFFFFF;}
	.st4{display:inline;opacity:0.26;}
	.st5{clip-path:url(#SVGID_00000106851947751579640370000011454438801088228236_);}
	.st6{clip-path:url(#SVGID_00000075865129484000332300000014118310191672175024_);}
	.st7{display:inline;enable-background:new    ;}
</style>
<g id="레이어_1_00000026858884139544744060000008052443173721306038_">
	
		<image style="display:none;overflow:visible;enable-background:new    ;" width="400" height="400" xlink:href="A1F103543BC0F234.jpeg"  transform="matrix(1 0 0 1 760 340)">
	</image>
</g>
<g id="레이어_2_00000181776813360291222960000014482869126850981249_" class="st0">
	<g class="st1">
		
			<image style="overflow:visible;enable-background:new    ;" width="500" height="513" xlink:href="A1F103543BC0F234.png"  transform="matrix(1.4088 0 0 1.4088 601.3687 190.4091)">
		</image>
	</g>
	<g class="st1">
		
			<image style="overflow:visible;enable-background:new    ;" width="496" height="511" xlink:href="A1F103543BC0F233.png"  transform="matrix(1.0123 0 0 1.0123 709.5591 293.124)">
		</image>
	</g>
	<g class="st1">
		
			<image style="overflow:visible;enable-background:new    ;" width="509" height="508" xlink:href="A1F103543BC0F23C.png"  transform="matrix(0.1118 0 0 0.1118 932.1629 511.2769)">
		</image>
	</g>
	<path class="st2" d="M728.8,444.7h27.3c0,0-24.5,55.8-23.4,105.9s33.7,108.2,33.7,108.2h-26.2c0,0-30.2-46.7-31.4-107.1
		C707.7,491.4,728.8,444.7,728.8,444.7z"/>
	<g>
		<g class="st1">
			
				<image style="overflow:visible;enable-background:new    ;" width="506" height="514" xlink:href="A1F103543BC0F23F.png"  transform="matrix(0.3968 0 0 0.3968 832.5004 282.1266)">
			</image>
		</g>
	</g>
	<g>
		<g class="st1">
			
				<image style="overflow:visible;enable-background:new    ;" width="494" height="512" xlink:href="A1F103543BC0F23D.png"  transform="matrix(0.2871 0 0 0.2871 864.0043 310.6266)">
			</image>
		</g>
	</g>
	<g>
		<g class="st1">
			
				<image style="overflow:visible;enable-background:new    ;" width="494" height="502" xlink:href="A1F103543BC0F232.png"  transform="matrix(3.182152e-02 0 0 3.182152e-02 927.0477 372.6768)">
			</image>
		</g>
	</g>
	<path class="st2" d="M868.7,353.6h7.8c0,0-7,15.9-6.7,30.2c0.3,14.3,9.6,30.9,9.6,30.9h-7.5c0,0-8.6-13.3-8.9-30.5
		S868.7,353.6,868.7,353.6z"/>
</g>
<g id="레이어_3" class="st0">
	<path class="st3" d="M960.2,323.9C840.2,323.9,743,421.1,743,541s97.2,217.2,217.2,217.2S1177.4,661,1177.4,541
		C1177.4,421.1,1080.1,323.9,960.2,323.9z M960.2,584.3c-23.9,0-43.3-19.4-43.3-43.3s19.4-43.3,43.3-43.3s43.3,19.4,43.3,43.3
		C1003.4,564.9,984.1,584.3,960.2,584.3z"/>
	<g class="st4">
		<g>
			<g>
				<defs>
					<path id="SVGID_1_" d="M960.4,494.8c-25.4,0-46,20.6-46,46c0,25.4,20.6,46,46,46s46-20.6,46-46
						C1006.4,515.4,985.8,494.8,960.4,494.8z M960.4,576.6c-19.7,0-35.7-16-35.7-35.7c0-19.7,16-35.7,35.7-35.7s35.7,16,35.7,35.7
						C996.1,560.6,980.1,576.6,960.4,576.6z"/>
				</defs>
				<clipPath id="SVGID_00000139274119798646587130000000504255359734644646_">
					<use xlink:href="#SVGID_1_"  style="overflow:visible;"/>
				</clipPath>
				<g style="clip-path:url(#SVGID_00000139274119798646587130000000504255359734644646_);">
					<g>
						<g>
							<defs>
								<rect id="SVGID_00000136403605298929761340000011323029168265253021_" x="909.3" y="489.8" width="102.1" height="102.1"/>
							</defs>
							<clipPath id="SVGID_00000026855970890150070360000017627367485316746399_">
								<use xlink:href="#SVGID_00000136403605298929761340000011323029168265253021_"  style="overflow:visible;"/>
							</clipPath>
							<g style="clip-path:url(#SVGID_00000026855970890150070360000017627367485316746399_);">
								
									<image style="overflow:visible;enable-background:new    ;" width="214" height="213" xlink:href="A1F103543BC0F234.jpeg"  transform="matrix(0.48 0 0 0.48 908.9901 489.89)">
								</image>
							</g>
						</g>
					</g>
				</g>
			</g>
		</g>
	</g>
	<g class="st7">
		<g>
			<g>
				<defs>
					<path id="SVGID_00000147942814370502617590000005298455506574059698_" d="M960,308.8c-127.7,0-231.2,103.5-231.2,231.2
						S832.3,771.2,960,771.2s231.2-103.5,231.2-231.2S1087.7,308.8,960,308.8z M960,757.8c-119.8,0-217-97.2-217-217
						c0-119.8,97.2-217,217-217s217,97.1,217,217C1177,660.7,1079.8,757.8,960,757.8z"/>
				</defs>
				<use xlink:href="#SVGID_00000147942814370502617590000005298455506574059698_"  style="overflow:visible;fill:#E6E6E1;"/>
				<clipPath id="SVGID_00000030457585924700084630000005250698960761010821_">
					<use xlink:href="#SVGID_00000147942814370502617590000005298455506574059698_"  style="overflow:visible;"/>
				</clipPath>
			</g>
		</g>
	</g>
</g>
<g class="st0">
	<g class="st1">
		<path d="M766.6,501.2c16.2-4.8,32.6-8.8,49.5-10.4c-14.8-9-28.4-19.3-41.7-30.3c2.4-8.2,3.8-12.2,6.9-19.7
			c17.3,17.1,35.3,32,55.7,45.4c-1.8,7.1-2.6,10.8-3.5,18.5c-23.9,3.4-46.1,10.8-67.9,20.8C765.4,515.4,765.7,510.5,766.6,501.2z"/>
		<path d="M794.2,415.1c19,12.2,38.1,24.3,57.1,36.5c-2.7,4.5-4,6.8-6.3,11.7c-20.1-10.2-40.2-20.5-60.3-30.7
			C788.2,425.3,790.1,421.8,794.2,415.1z"/>
		<path d="M801.5,404.2c6.8-9.6,14.6-18.5,23.2-26.5c3.6-3.3,7.5-5.6,11.6-6.7c4-1,8.1-1.1,12-0.2c3.9,0.9,7.6,2.6,11,5.2
			c3.4,2.6,6.5,6,9.3,9.9c2.9,4.1,5,8.2,6.4,12.1c1.5,4.1,2.3,8,2.4,11.5c0.1,3.6-0.4,7.1-1.6,10.2c-1.2,3.1-3.2,6-5.9,8.7
			c-5.9,5.8-8.7,9-13.7,16C838,430.9,819.7,417.5,801.5,404.2z M853.2,424.5c2.2-2.5,3.4-3.7,5.7-6c1.5-1.5,2.6-3.2,3.1-5.1
			c0.5-1.8,0.6-3.8,0.2-5.9c-0.3-1.9-1-4.1-2.1-6.3c-1.1-2.2-2.5-4.2-4.2-6.3c-1.7-1.9-3.6-3.7-5.6-4.9c-2-1.2-4.2-2.1-6.4-2.4
			c-2.2-0.3-4.6-0.1-6.8,0.6c-2.2,0.7-4.4,2.2-6.4,4.2c-2.5,2.6-3.8,3.9-6.2,6.6C834,407.5,843.6,416,853.2,424.5z"/>
		<path d="M915.1,356.3c1.7,5.5,2.5,8.3,4.2,13.8c-8.9,2.4-18.1,5.7-26.4,9.7c2.3,4.5,3.4,6.8,5.7,11.3c10.1-4.7,15.4-6.6,26.2-9.5
			c1.6,5.5,2.4,8.3,4,13.8c-12.1,3.2-23.9,8-34.7,14.3c-12-19.1-24-38.1-36-57.2c16.5-9,33-15.8,51-21.2c1.6,5.5,2.5,8.3,4.1,13.9
			c-11.2,3.4-21.4,7.1-32.1,11.7c2,4,3,6,5.1,9.9C895.4,362.5,905.3,358.9,915.1,356.3z"/>
		<path d="M926.6,361.5c-1.2-4.9-1.5-9.7-0.7-14.3c0.8-4.5,2.5-8.6,5.3-12.3c2.7-3.5,6.3-6.5,10.9-8.8c4.5-2.2,9.7-3.5,15.4-3.8
			c5.7-0.2,11.1,0.7,15.8,2.5c4.7,1.8,8.8,4.6,11.7,7.9c3,3.3,5.2,7.4,6.3,11.8c1.1,4.5,1.2,9.3,0.5,14.2c-0.8,5.1-2.3,9.7-4.3,13.7
			c-2.1,4.1-4.6,7.6-7.3,10.4c-2.8,2.9-5.8,5.2-9.1,6.8c-3.3,1.6-6.7,2.5-10.5,2.7c-3.7,0.2-7.2-0.5-10.6-1.8
			c-3.5-1.4-6.7-3.4-9.6-6c-3-2.6-5.8-5.9-8.3-9.8C929.9,370.9,927.9,366.5,926.6,361.5z M942,358.8c0.5,3.1,1.3,5.8,2.4,8.1
			c1.1,2.4,2.5,4.5,4,6.2c1.6,1.7,3.4,2.9,5.3,3.8c1.9,0.9,4,1.3,6.3,1.2c2.2-0.1,4.3-0.7,6.2-1.7c1.8-1,3.5-2.4,4.9-4.2
			c1.4-1.8,2.6-4,3.5-6.5c0.9-2.4,1.4-5.2,1.6-8.3c0.2-2.9-0.1-5.8-0.8-8.2c-0.7-2.5-1.9-4.8-3.5-6.7c-1.6-1.9-3.6-3.4-5.9-4.4
			c-2.4-1-5.1-1.4-8-1.3c-2.9,0.1-5.6,0.8-7.8,2c-2.3,1.2-4.1,2.9-5.5,4.9c-1.4,2-2.3,4.4-2.8,6.9C941.6,353,941.5,355.9,942,358.8z
			"/>
		<path d="M1066.2,377.1c-3.2,4.8-4.9,7.3-8.1,12.1c-7.8-5-16.5-9.4-25.1-12.8c-4.4,9.9-6.6,14.8-11,24.7c-4.6-1.9-7-2.7-11.7-4.2
			c7.2-21.2,14.3-42.3,21.5-63.5c17.9,6,34,13.4,50.2,23.1c-3.3,4.8-4.9,7.2-8.2,12.1c-10-6-19.6-10.9-30.3-15.7
			c-1.8,4.1-2.7,6.1-4.5,10.2C1048.3,366.8,1057.7,371.7,1066.2,377.1z"/>
		<path d="M1103.4,372.5c-15.1,16.9-30.1,33.7-45.2,50.6c-3.8-3.3-5.8-4.8-9.8-7.7c13.4-18.1,26.9-36.3,40.3-54.4
			C1094.8,365.4,1097.7,367.6,1103.4,372.5z"/>
		<path d="M1112.7,381.1c5.4,5.3,7.9,8.1,12.7,14.1c-13.7,11.3-27.4,22.5-41.2,33.8c6.6,8,9.5,12.4,14.6,22
			c-5.1,2.9-7.6,4.3-12.7,7.2c-5.7-10.8-13-20.7-21.7-29.3C1080.5,413,1096.6,397,1112.7,381.1z"/>
		<path d="M1167.1,500.6c0.9,9.6,1.2,14.5,1.2,24.7c-22.2,0-44.5,0-66.7,0c0-6.7-0.2-9.9-0.8-16.2c11-1.3,22.1-2.7,33.1-4
			c-11.3-3.7-22.9-6.4-34.7-7.9c-0.7-4.2-1.2-6.3-2.2-10.4c9.9-6.9,19.3-14.6,28.2-22.9c-10.5,4.1-20.9,8.1-31.4,12.2
			c-1.8-5.3-2.9-7.9-5.2-12.8c20.1-10.2,40.2-20.4,60.3-30.7c3.5,7.5,5.1,11.4,7.9,19.6c-12.5,12.8-25.5,24.2-39.9,34.9
			C1134.4,489.7,1150.7,494.4,1167.1,500.6z"/>
	</g>
</g>
<g class="st0">
	<g class="st1">
		<path d="M1167.5,559c-16.2,4.8-32.6,8.8-49.5,10.4c14.8,9,28.4,19.3,41.7,30.3c-2.4,8.2-3.8,12.2-6.9,19.7
			c-17.3-17.1-35.3-32-55.7-45.4c1.8-7.1,2.6-10.8,3.5-18.5c23.9-3.4,46.1-10.8,67.9-20.8C1168.7,544.8,1168.4,549.7,1167.5,559z"/>
		<path d="M1139.8,645.1c-19-12.2-38.1-24.3-57.1-36.5c2.7-4.5,4-6.8,6.3-11.7c20.1,10.2,40.2,20.5,60.3,30.7
			C1145.8,634.9,1143.9,638.4,1139.8,645.1z"/>
		<path d="M1132.6,656c-6.8,9.6-14.6,18.5-23.2,26.5c-3.6,3.3-7.5,5.6-11.6,6.7c-4,1-8.1,1.1-12,0.2c-3.9-0.9-7.6-2.6-11-5.2
			c-3.4-2.6-6.5-6-9.3-9.9c-2.9-4.1-5-8.2-6.4-12.1c-1.5-4.1-2.3-8-2.4-11.5c-0.1-3.6,0.4-7.1,1.6-10.2c1.2-3.1,3.2-6,5.9-8.7
			c5.9-5.8,8.7-9,13.7-16C1096.1,629.3,1114.4,642.7,1132.6,656z M1080.8,635.6c-2.2,2.5-3.4,3.7-5.7,6c-1.5,1.5-2.6,3.2-3.1,5.1
			c-0.5,1.8-0.6,3.8-0.2,5.9c0.3,1.9,1,4.1,2.1,6.3c1.1,2.2,2.5,4.2,4.2,6.3c1.7,1.9,3.6,3.7,5.6,4.9c2,1.2,4.2,2.1,6.4,2.4
			c2.2,0.3,4.6,0.1,6.8-0.6c2.2-0.7,4.4-2.2,6.4-4.2c2.5-2.6,3.8-3.9,6.2-6.6C1100.1,652.7,1090.5,644.2,1080.8,635.6z"/>
		<path d="M1019,703.9c-1.7-5.5-2.5-8.3-4.2-13.8c8.9-2.4,18.1-5.7,26.4-9.7c-2.3-4.5-3.4-6.8-5.7-11.3c-10.1,4.7-15.4,6.6-26.2,9.5
			c-1.6-5.5-2.4-8.3-4-13.8c12.1-3.2,23.9-8,34.7-14.3c12,19.1,24,38.1,36,57.2c-16.5,9-33,15.8-51,21.2c-1.6-5.5-2.5-8.3-4.1-13.9
			c11.2-3.4,21.4-7.1,32.1-11.7c-2-4-3-6-5.1-9.9C1038.7,697.7,1028.8,701.3,1019,703.9z"/>
		<path d="M1007.4,698.7c1.2,4.9,1.5,9.7,0.7,14.3c-0.8,4.5-2.5,8.6-5.3,12.3c-2.7,3.5-6.3,6.5-10.9,8.8c-4.5,2.2-9.7,3.5-15.4,3.8
			c-5.7,0.2-11.1-0.7-15.8-2.5c-4.7-1.8-8.8-4.6-11.7-7.9c-3-3.3-5.2-7.4-6.3-11.8c-1.1-4.5-1.2-9.3-0.5-14.2
			c0.8-5.1,2.3-9.7,4.3-13.7c2.1-4.1,4.6-7.6,7.3-10.4c2.8-2.9,5.8-5.2,9.1-6.8c3.3-1.6,6.7-2.5,10.5-2.7c3.7-0.2,7.2,0.5,10.6,1.8
			c3.5,1.4,6.7,3.4,9.6,6c3,2.6,5.8,5.9,8.3,9.8C1004.2,689.3,1006.2,693.7,1007.4,698.7z M992.1,701.4c-0.5-3.1-1.3-5.8-2.4-8.1
			c-1.1-2.4-2.5-4.5-4-6.2c-1.6-1.7-3.4-2.9-5.3-3.8c-1.9-0.9-4-1.3-6.3-1.2c-2.2,0.1-4.3,0.7-6.2,1.7c-1.8,1-3.5,2.4-4.9,4.2
			c-1.4,1.8-2.6,4-3.5,6.5c-0.9,2.4-1.4,5.2-1.6,8.3c-0.2,2.9,0.1,5.8,0.8,8.2c0.7,2.5,1.9,4.8,3.5,6.7c1.6,1.9,3.6,3.4,5.9,4.4
			c2.4,1,5.1,1.4,8,1.3c2.9-0.1,5.6-0.8,7.8-2c2.3-1.2,4.1-2.9,5.5-4.9c1.4-2,2.3-4.4,2.8-6.9C992.5,707.2,992.5,704.3,992.1,701.4z
			"/>
		<path d="M867.9,683.1c3.2-4.8,4.9-7.3,8.1-12.1c7.8,5,16.5,9.4,25.1,12.8c4.4-9.9,6.6-14.8,11-24.7c4.6,1.9,7,2.7,11.7,4.2
			c-7.2,21.2-14.3,42.3-21.5,63.5c-17.9-6-34-13.4-50.2-23.1c3.3-4.8,4.9-7.2,8.2-12.1c10,6,19.6,10.9,30.3,15.7
			c1.8-4.1,2.7-6.1,4.5-10.2C885.8,693.3,876.4,688.5,867.9,683.1z"/>
		<path d="M830.7,687.6c15.1-16.9,30.1-33.7,45.2-50.6c3.8,3.3,5.8,4.8,9.8,7.7c-13.4,18.1-26.9,36.3-40.3,54.4
			C839.3,694.8,836.4,692.5,830.7,687.6z"/>
		<path d="M821.4,679c-5.4-5.3-7.9-8.1-12.7-14.1c13.7-11.3,27.4-22.5,41.2-33.8c-6.6-8-9.5-12.4-14.6-22c5.1-2.9,7.6-4.3,12.7-7.2
			c5.7,10.8,13,20.7,21.7,29.3C853.6,647.2,837.5,663.1,821.4,679z"/>
		<path d="M767,559.6c-0.9-9.6-1.2-14.5-1.2-24.7c22.2,0,44.5,0,66.7,0c0,6.7,0.2,9.9,0.8,16.2c-11,1.3-22.1,2.7-33.1,4
			c11.3,3.7,22.9,6.4,34.7,7.9c0.7,4.2,1.2,6.3,2.2,10.4c-9.9,6.9-19.3,14.6-28.2,22.9c10.5-4.1,20.9-8.1,31.4-12.2
			c1.8,5.3,2.9,7.9,5.2,12.8c-20.1,10.2-40.2,20.4-60.3,30.7c-3.5-7.5-5.1-11.4-7.9-19.6c12.5-12.8,25.5-24.2,39.9-34.9
			C799.7,570.5,783.4,565.7,767,559.6z"/>
	</g>
</g>
<g class="st0">
	<g class="st1">
		<path d="M821.4,538.2c-22.9-7.8-43.8-17.6-64.6-29.9c1.3-11.1,2.3-16.5,4.8-26.7c23.5-2.1,46.1-1.7,69.6,1.3
			c-1.9,5-2.8,7.6-4.3,13c-7.7-0.3-11.5-0.3-19.3,0c0.5,8.4,0.9,12.6,2.4,21.1c4.8,2.3,7.3,3.5,12.2,5.6
			C821.5,528.6,821.4,531.7,821.4,538.2z M795,509.2c-0.6-5-0.8-7.5-1.1-12.5c-6.5,0.6-9.8,1-16.3,2
			C784.4,503.2,787.9,505.3,795,509.2z"/>
		<path d="M772.7,448.5c5.5-12.5,12.2-24.3,20.3-35.3c1.8-2.4,3.9-4.6,6.2-6.1c2.2-1.5,4.7-2.5,7.1-2.9c2.4-0.4,5,0,7.6,0.9
			c2.5,0.9,5.2,2.6,7.7,4.9c3.4,3.1,5.5,6.1,6.7,8.9c1.2,2.9,1.6,5.9,1.2,8.9c9.8,3.5,19.6,7.8,28.8,12.6c-3.6,3.7-5.3,5.6-8.5,9.7
			c-9.6-3.9-14.5-5.6-24.6-8.4c-1.9,5.3-2.8,7.9-4.2,13.4c7.3,4.3,10.9,6.5,18.1,10.9c-2.5,4.5-3.7,6.8-5.8,11.7
			C813.1,467.8,792.9,458.1,772.7,448.5z M811.2,422.8c-1.2-0.9-2.7-1.5-4.2-1.4c-1.5,0.1-2.8,1-3.8,2.3c-4.1,5.7-6,8.7-9.5,14.9
			c5.6,3.4,8.4,5,14,8.4c1.9-5.8,3-8.6,5.4-14.1c1.1-2.5,1.4-4.5,0.9-6.1C813.6,425.4,812.7,424,811.2,422.8z"/>
		<path d="M851.9,377.9c9.8,14.6,19.7,29.2,29.5,43.7c-4.1,2.6-6.1,4-9.9,6.9c-11.1-13.7-22.2-27.4-33.2-41.1
			c-6.4,5-9.5,7.6-15.3,13.3c-4.1-4.1-6.2-6.2-10.3-10.3c15.4-14.2,31.5-25.4,50-35.2c2.7,5.1,4.1,7.7,6.8,12.8
			C862.2,371.6,858.7,373.6,851.9,377.9z"/>
		<path d="M892.9,343.3c10.8-3.1,21.2-5.5,32.3-7.4c4.6-0.7,8.9-0.4,12.7,0.9c3.7,1.3,7.1,3.5,9.7,6.3c2.7,2.8,4.7,6.2,6,10.2
			c1.3,4,2,8.4,2.1,13.1c0.1,4.9-0.4,9.5-1.3,13.4c-1,4.2-2.5,7.8-4.3,10.8c-1.8,3-4.1,5.6-6.7,7.5c-2.6,1.9-5.8,3.1-9.4,3.7
			c-7.9,1.3-11.8,2.3-19.4,4.6C907.4,385.3,900.1,364.3,892.9,343.3z M922.8,389.3c3.1-0.7,4.6-1,7.7-1.5c2-0.4,3.8-1.2,5.2-2.4
			c1.4-1.2,2.5-2.7,3.3-4.6c0.8-1.8,1.4-3.9,1.7-6.3c0.3-2.4,0.3-4.8,0-7.5c-0.3-2.5-0.9-4.9-1.9-7.1c-0.9-2-2.2-4-3.8-5.4
			c-1.6-1.5-3.6-2.6-5.7-3.3c-2.1-0.6-4.7-0.7-7.3-0.2c-3.4,0.6-5,1-8.4,1.7C916.7,364.9,919.7,377.1,922.8,389.3z"/>
		<path d="M1009.5,364.7c-1.6,5.5-2.4,8.3-3.9,13.8c-10.6-2.7-16-3.7-26.8-4.8c-0.6,5-0.8,7.4-1.4,12.4c10.8,1.1,16.2,2.1,26.6,4.9
			c-1.6,5.5-2.5,8.2-4.1,13.7c-11.8-3.2-24-4.9-36.2-5.2c0.6-22.1,1.1-44.2,1.7-66.3c18.1,0.9,35.2,3.3,52.7,7.4
			c-1.6,5.5-2.4,8.3-4.1,13.8c-10.9-2.6-21.3-4.4-32.4-5.9c-0.5,4.4-0.7,6.6-1.2,10.9C990,360.4,1000.1,362.2,1009.5,364.7z"/>
		<path d="M1017.6,387.5c1.3,3.1,3.1,6,5.3,8.5c2.2,2.5,4.7,4.5,7.6,5.8c1.9,0.9,3.5,1.2,4.8,1c1.2-0.2,2.3-1,3.1-2.4
			c0.9-1.6,1.1-3.2,0.7-4.7c-0.5-1.5-1.9-3.4-4-5.4c-1.8-1.8-3.7-3.7-5.7-5.5c-2-1.9-3.8-3.9-5.2-6.2c-1.4-2.2-2.4-4.8-2.9-7.6
			c-0.5-2.8-0.2-6.1,1.1-9.8c1.2-3.3,2.8-6,5-8c2.1-1.9,4.6-3.3,7.5-4.1c2.8-0.7,5.9-0.8,9.3-0.3c3.2,0.5,6.6,1.5,9.9,3
			c2.3,1.1,4.4,2.3,6.3,3.6c1.8,1.3,3.6,2.8,5.2,4.4c1.5,1.6,3,3.5,4.2,5.5c1.2,1.9,2.3,4.2,3.4,6.6c-5.3,3-7.9,4.6-13,7.9
			c-1.1-3-2.6-5.8-4.7-8.2c-2.1-2.5-4.8-4.6-7.8-6c-1-0.5-2-0.9-2.9-1.2c-1-0.3-2-0.4-2.7-0.4c-0.9,0-1.6,0.3-2.2,0.6
			c-0.7,0.4-1.2,0.9-1.5,1.6c-0.3,0.8-0.5,1.6-0.5,2.1c0,0.6,0.1,1.5,0.4,2.2c0.3,0.7,1.1,1.7,1.9,2.7c0.9,0.9,2.1,2.2,3.7,3.6
			c2.4,2.2,4.7,4.6,6.5,6.8c1.8,2.2,3.2,4.7,4.1,7.1c0.8,2.4,1,5.1,0.6,7.7c-0.5,2.7-1.8,5.6-3.9,8.6c-2,2.9-4.2,5.1-6.4,6.7
			c-2.3,1.6-4.7,2.7-7,3.2c-2.4,0.6-4.8,0.6-7.2,0.3c-2.4-0.4-4.8-1.1-7.2-2.2c-3.5-1.6-6.4-3.8-8.8-6.5c-2.5-2.7-4.7-6-6.6-9.6
			C1011.3,394.2,1013.3,391.9,1017.6,387.5z"/>
		<path d="M1100.7,384.3c-15.2,16.6-30.4,33.2-45.6,49.8c-3.6-3.2-5.5-4.7-9.4-7.6c13.7-17.8,27.4-35.6,41-53.5
			C1092.6,377.3,1095.4,379.5,1100.7,384.3z"/>
		<path d="M1087.2,451.5c1.9,2.9,4.3,4.9,7.3,5.9c2.9,0.9,6.1,0.8,9.8-0.7c-2.9-5.5-4.5-8.1-7.8-13.1c4.8-3.3,7.2-5,12-8.3
			c6.1,9.8,10.9,19,15.6,29.5c-3.4,1.5-5.1,2.3-8.5,3.8c-4.8,2.1-9.3,3.3-13.3,3.5c-4.2,0.3-7.9-0.1-11.3-1.1
			c-3.3-0.9-6.5-2.5-9.1-4.4c-2.6-1.9-4.8-4.3-6.6-7c-2-3.1-3.2-6.3-3.8-9.8c-0.6-3.6-0.5-7.3,0.2-11.1c0.7-3.9,2.2-7.9,4.2-12
			c2.1-4,4.8-8,8.6-11.7c3.7-3.6,7.7-6.4,12.1-8.2c4.3-1.7,8.8-2.5,13.4-2.2c4.4,0.4,8.9,1.8,13.2,4.4c4.2,2.6,8,6.2,11.1,11
			c4.1,6.2,6.1,12.8,6.2,19c0,6.2-1.8,12.6-5.2,18.8c-5.4-2.8-8.1-4.1-13.5-6.2c2.4-3.6,3.8-7.4,4-11.5c0.2-4.1-1-8.3-3.6-12.2
			c-1.4-2.1-3.2-3.8-5.3-5.1c-2.2-1.3-4.5-1.9-6.8-2.1c-2.5-0.2-5,0.2-7.6,1.1c-2.6,0.9-5.2,2.4-7.6,4.4c-2.5,2.1-4.4,4.2-5.8,6.4
			c-1.5,2.3-2.6,4.5-3.1,6.7c-0.6,2.2-0.8,4.4-0.5,6.4C1085.4,447.8,1086,449.7,1087.2,451.5z"/>
		<path d="M1153.4,464.2c2.6,7.6,3.7,11.6,5.6,19.8c-10.8,12.8-22,25-35.1,35.5c13.3-1.5,26.7-3,40-4.6c0.8,9,1,13.6,1,23.2
			c-22.1,0-44.2,0-66.4,0c0-6.5-0.1-9.6-0.7-15.7c13.4-9,25.5-20,36.5-31.7c-13.3,3.6-26.5,7.2-39.8,10.8c-1.3-5.5-2-8.2-3.8-13.4
			C1111.7,480.2,1132.6,472.2,1153.4,464.2z"/>
	</g>
</g>
<g class="st0">
	<g class="st1">
		<path d="M1098.6,544.4c22.9,7.8,43.8,17.6,64.6,29.9c-1.3,11.1-2.3,16.5-4.8,26.7c-23.5,2.1-46.1,1.7-69.6-1.3
			c1.9-5,2.8-7.6,4.3-13c7.7,0.3,11.5,0.3,19.3,0c-0.5-8.4-0.9-12.6-2.4-21.1c-4.8-2.3-7.3-3.5-12.2-5.6
			C1098.5,554,1098.6,550.8,1098.6,544.4z M1125,573.3c0.6,5,0.8,7.5,1.1,12.5c6.5-0.6,9.8-1,16.3-2
			C1135.6,579.3,1132.1,577.2,1125,573.3z"/>
		<path d="M1147.3,634.1c-5.5,12.5-12.2,24.3-20.3,35.3c-1.8,2.4-3.9,4.6-6.2,6.1c-2.2,1.5-4.7,2.5-7.1,2.9c-2.4,0.4-5,0-7.6-0.9
			c-2.5-0.9-5.2-2.6-7.7-4.9c-3.4-3.1-5.5-6.1-6.7-8.9c-1.2-2.9-1.6-5.9-1.2-8.9c-9.8-3.5-19.6-7.8-28.8-12.6
			c3.6-3.7,5.3-5.6,8.5-9.7c9.6,3.9,14.5,5.6,24.6,8.4c1.9-5.3,2.8-7.9,4.2-13.4c-7.3-4.3-10.9-6.5-18.1-10.9
			c2.5-4.5,3.7-6.8,5.8-11.7C1106.9,614.7,1127.1,624.4,1147.3,634.1z M1108.8,659.7c1.2,0.9,2.7,1.5,4.2,1.4c1.5-0.1,2.8-1,3.8-2.3
			c4.1-5.7,6-8.7,9.5-14.9c-5.6-3.4-8.4-5-14-8.4c-1.9,5.8-3,8.6-5.4,14.1c-1.1,2.5-1.4,4.5-0.9,6.1
			C1106.4,657.2,1107.3,658.6,1108.8,659.7z"/>
		<path d="M1068.1,704.6c-9.8-14.6-19.7-29.2-29.5-43.7c4.1-2.6,6.1-4,9.9-6.9c11.1,13.7,22.2,27.4,33.2,41.1
			c6.4-5,9.5-7.6,15.3-13.3c4.1,4.1,6.2,6.2,10.3,10.3c-15.4,14.2-31.5,25.4-50,35.2c-2.7-5.1-4.1-7.7-6.8-12.8
			C1057.8,710.9,1061.3,708.9,1068.1,704.6z"/>
		<path d="M1027.1,739.2c-10.8,3.1-21.2,5.5-32.3,7.4c-4.6,0.7-8.9,0.4-12.7-0.9c-3.7-1.3-7.1-3.5-9.7-6.3c-2.7-2.8-4.7-6.2-6-10.2
			c-1.3-4-2-8.4-2.1-13.1c-0.1-4.9,0.4-9.5,1.3-13.4c1-4.2,2.5-7.8,4.3-10.8c1.8-3,4.1-5.6,6.7-7.5c2.6-1.9,5.8-3.1,9.4-3.7
			c7.9-1.3,11.8-2.3,19.4-4.6C1012.6,697.2,1019.9,718.2,1027.1,739.2z M997.2,693.2c-3.1,0.7-4.6,1-7.7,1.5c-2,0.4-3.8,1.2-5.2,2.4
			c-1.4,1.2-2.5,2.7-3.3,4.6c-0.8,1.8-1.4,3.9-1.7,6.3c-0.3,2.4-0.3,4.8,0,7.5c0.3,2.5,0.9,4.9,1.9,7.1c0.9,2,2.2,4,3.8,5.4
			c1.6,1.5,3.6,2.6,5.7,3.3c2.1,0.6,4.7,0.7,7.3,0.2c3.4-0.6,5-1,8.4-1.7C1003.3,717.7,1000.3,705.4,997.2,693.2z"/>
		<path d="M910.5,717.8c1.6-5.5,2.4-8.3,3.9-13.8c10.6,2.7,16,3.7,26.8,4.8c0.6-5,0.8-7.4,1.4-12.4c-10.8-1.1-16.2-2.1-26.6-4.9
			c1.6-5.5,2.5-8.2,4.1-13.7c11.8,3.2,24,4.9,36.2,5.2c-0.6,22.1-1.1,44.2-1.7,66.3c-18.1-0.9-35.2-3.3-52.7-7.4
			c1.6-5.5,2.4-8.3,4.1-13.8c10.9,2.6,21.3,4.4,32.4,5.9c0.5-4.4,0.7-6.6,1.2-10.9C930,722.1,919.9,720.3,910.5,717.8z"/>
		<path d="M902.4,695c-1.3-3.1-3.1-6-5.3-8.5c-2.2-2.5-4.7-4.5-7.6-5.8c-1.9-0.9-3.5-1.2-4.8-1c-1.2,0.2-2.3,1-3.1,2.4
			c-0.9,1.6-1.1,3.2-0.7,4.7c0.5,1.5,1.9,3.4,4,5.4c1.8,1.8,3.7,3.7,5.7,5.5c2,1.9,3.8,3.9,5.2,6.2c1.4,2.2,2.4,4.8,2.9,7.6
			c0.5,2.8,0.2,6.1-1.1,9.8c-1.2,3.3-2.8,6-5,8c-2.1,1.9-4.6,3.3-7.5,4.1c-2.8,0.7-5.9,0.8-9.3,0.3c-3.2-0.5-6.6-1.5-9.9-3
			c-2.3-1.1-4.4-2.3-6.3-3.6c-1.8-1.3-3.6-2.8-5.2-4.4c-1.5-1.6-3-3.5-4.2-5.5c-1.2-1.9-2.3-4.2-3.4-6.6c5.3-3,7.9-4.6,13-7.9
			c1.1,3,2.6,5.8,4.7,8.2c2.1,2.5,4.8,4.6,7.8,6c1,0.5,2,0.9,2.9,1.2c1,0.3,2,0.4,2.7,0.4c0.9,0,1.6-0.3,2.2-0.6
			c0.7-0.4,1.2-0.9,1.5-1.6c0.3-0.8,0.5-1.6,0.5-2.1c0-0.6-0.1-1.5-0.4-2.2c-0.3-0.7-1.1-1.7-1.9-2.7c-0.9-0.9-2.1-2.2-3.7-3.6
			c-2.4-2.2-4.7-4.6-6.5-6.8c-1.8-2.2-3.2-4.7-4.1-7.1c-0.8-2.4-1-5.1-0.6-7.7c0.5-2.7,1.8-5.6,3.9-8.6c2-2.9,4.2-5.1,6.4-6.7
			c2.3-1.6,4.7-2.7,7-3.2c2.4-0.6,4.8-0.6,7.2-0.3c2.4,0.4,4.8,1.1,7.2,2.2c3.5,1.6,6.4,3.8,8.8,6.5c2.5,2.7,4.7,6,6.6,9.6
			C908.7,688.3,906.7,690.6,902.4,695z"/>
		<path d="M819.3,698.2c15.2-16.6,30.4-33.2,45.6-49.8c3.6,3.2,5.5,4.7,9.4,7.6c-13.7,17.8-27.4,35.6-41,53.5
			C827.4,705.3,824.6,703,819.3,698.2z"/>
		<path d="M832.8,631c-1.9-2.9-4.3-4.9-7.3-5.9c-2.9-0.9-6.1-0.8-9.8,0.7c2.9,5.5,4.5,8.1,7.8,13.1c-4.8,3.3-7.2,5-12,8.3
			c-6.1-9.8-10.9-19-15.6-29.5c3.4-1.5,5.1-2.3,8.5-3.8c4.8-2.1,9.3-3.3,13.3-3.5c4.2-0.3,7.9,0.1,11.3,1.1c3.3,0.9,6.5,2.5,9.1,4.4
			c2.6,1.9,4.8,4.3,6.6,7c2,3.1,3.2,6.3,3.8,9.8c0.6,3.6,0.5,7.3-0.2,11.1c-0.7,3.9-2.2,7.9-4.2,12c-2.1,4-4.8,8-8.6,11.7
			c-3.7,3.6-7.7,6.4-12.1,8.2c-4.3,1.7-8.8,2.5-13.4,2.2c-4.4-0.4-8.9-1.8-13.2-4.4c-4.2-2.6-8-6.2-11.1-11
			c-4.1-6.2-6.1-12.8-6.2-19c0-6.2,1.8-12.6,5.2-18.8c5.4,2.8,8.1,4.1,13.5,6.2c-2.4,3.6-3.8,7.4-4,11.5c-0.2,4.1,1,8.3,3.6,12.2
			c1.4,2.1,3.2,3.8,5.3,5.1c2.2,1.3,4.5,1.9,6.8,2.1c2.5,0.2,5-0.2,7.6-1.1c2.6-0.9,5.2-2.4,7.6-4.4c2.5-2.1,4.4-4.2,5.8-6.4
			c1.5-2.3,2.6-4.5,3.1-6.7c0.6-2.2,0.8-4.4,0.5-6.4C834.6,634.7,834,632.8,832.8,631z"/>
		<path d="M766.6,618.3c-2.6-7.6-3.7-11.6-5.6-19.8c10.8-12.8,22-25,35.1-35.5c-13.3,1.5-26.7,3-40,4.6c-0.8-9-1-13.6-1-23.2
			c22.1,0,44.2,0,66.4,0c0,6.5,0.1,9.6,0.7,15.7c-13.4,9-25.5,20-36.5,31.7c13.3-3.6,26.5-7.2,39.8-10.8c1.3,5.5,2,8.2,3.8,13.4
			C808.3,602.3,787.4,610.3,766.6,618.3z"/>
	</g>
</g>
<g class="st0">
	<g class="st1">
		<path d="M755.6,517.7c12-2,24.1-3.3,36.3-4.2c-11.6-4-23-8.5-34.3-13.4c1.1-7,1.7-10.5,3.3-17.1c12.3,0.7,24.6,1.9,36.8,3.6
			c-11.1-6-21.9-12.5-32.4-19.4c2-6.4,3.2-9.5,5.7-15.6c17,13.3,34.5,25.4,52.9,36.5c-1.4,4.5-2.1,6.8-3.2,11.5
			c-13.1-1.6-26.2-2.6-39.3-3c12.2,5.3,24.6,10.2,37.1,14.5c-0.8,5-1,7.5-1.4,12.8c-21.2,2.8-41.6,7.1-62.1,13.2
			C754.9,529.2,755.1,525.3,755.6,517.7z"/>
		<path d="M816.4,421.5c4.2,3.4,6.3,5.1,10.5,8.6c-6,7.4-8.7,11.3-13.5,19.8c4,2.4,6.1,3.7,10.1,6.1c4.8-8.5,7.6-12.4,13.6-19.7
			c4.1,3.5,6.2,5.2,10.3,8.6c-7,9.2-12.2,17.6-17.6,27.9c-18.6-9.3-37.3-18.7-55.9-28c6.6-14.1,14.8-27.6,24.8-39.5
			c4.2,3.5,6.3,5.2,10.4,8.6c-6.1,7.2-11.7,15.4-16.3,23.6c3.6,2.1,5.3,3.2,8.9,5.4C807,433.7,809.9,429.5,816.4,421.5z"/>
		<path d="M852.5,380c1.6,2.3,2.7,4.8,3.3,7c0.6,2.4,0.6,4.8,0.2,7.1c1.1-0.1,2.4-0.1,3.6,0.1c1.2,0.2,2.5,0.7,3.6,1.3
			c1.2,0.6,2.5,1.6,3.6,2.7c1.2,1.1,2.3,2.6,3.4,4.3c1.7,2.6,2.9,5,3.6,7.2c0.7,2.2,1,4.2,0.9,5.9c-0.1,1.7-0.6,3.3-1.4,4.6
			c-0.8,1.3-1.8,2.4-3.1,3.4c-8.1,5.9-11.9,9.3-18.7,16.8c-15.5-14.1-31-28.1-46.5-42.2c8-8.2,15.8-15.3,24.7-22.5
			c1.8-1.4,3.8-2.5,5.7-3.2c1.9-0.7,4.1-0.9,6-0.7c1.9,0.2,3.9,1.1,5.8,2.3C848.9,375.4,850.7,377.3,852.5,380z M841.8,395.1
			c0.9-1.2,1.3-2.4,1.2-3.7c-0.1-1.2-0.5-2.4-1.2-3.4c-0.8-1.1-1.9-1.6-3-1.6c-1.1,0-2.2,0.4-3.1,1.1c-4.7,3.7-7,5.6-11.3,9.7
			c3.9,4.1,5.8,6.1,9.7,10.1C836.9,402.3,838.5,399.9,841.8,395.1z M858.8,407.2c-0.6-0.8-1.3-1.5-2.1-1.9c-0.7-0.4-1.6-0.7-2.3-0.8
			c-0.7-0.1-1.6,0-2.3,0.2s-1.5,0.5-2.2,0.8c-2.9,4.6-4.2,6.9-6.6,11.7c2.5,2.6,3.8,3.9,6.3,6.6c3.5-3.2,5.3-4.8,9-7.7
			c1.2-1,2-2.1,2.2-3.7C860.9,410.9,860.4,409.2,858.8,407.2z"/>
		<path d="M870.9,351.7c10.1-4.4,15.4-6.2,26-9.2c3.7-1.1,7.4-1.2,10.7-0.3c3.3,0.8,6.4,2.5,8.9,4.8c2.6,2.3,4.8,5.2,6.5,8.7
			c1.7,3.5,2.9,7.5,3.7,11.8c0.8,4.5,1.1,8.7,0.9,12.5c-0.2,3.9-0.9,7.5-2,10.4c-1.1,3-2.7,5.6-4.7,7.6c-2,2-4.5,3.4-7.5,4.3
			c-6.6,2-9.8,3.1-16,5.8C888.5,389.2,879.7,370.5,870.9,351.7z M902.2,391.8c2.5-0.9,3.8-1.3,6.4-2.1c1.7-0.5,3-1.4,4.1-2.7
			c1-1.2,1.7-2.8,2.2-4.6c0.4-1.7,0.6-3.8,0.5-6c-0.1-2.2-0.4-4.4-1.1-6.8c-0.6-2.3-1.4-4.4-2.6-6.3c-1.1-1.8-2.4-3.4-3.9-4.6
			c-1.5-1.2-3.3-2.1-5.2-2.5c-1.9-0.4-4-0.2-6.2,0.4c-2.7,0.8-4.1,1.3-6.8,2.2C893.8,369.8,898,380.8,902.2,391.8z"/>
		<path d="M971.1,358.1c-0.4,5.3-0.6,8-1,13.3c-9.2-0.6-13.9-0.6-23.1-0.1c0.3,4.6,0.5,7,0.8,11.6c9.2-0.5,13.9-0.5,23.1,0.2
			c-0.4,5.3-0.7,7.9-1.1,13.2c-10.2-0.9-21.3-0.6-31.5,0.8c-2.8-20.4-5.7-40.8-8.5-61.1c15-1.5,29.4-1.8,44.5-1.2
			c-0.4,5.3-0.6,8-1.1,13.3c-11-0.8-16.6-0.8-27.6-0.2c0.3,4.1,0.4,6.1,0.7,10.2C956.1,357.4,961.1,357.4,971.1,358.1z"/>
		<path d="M994.7,337.1c1.6,15.1,2.5,30.1,2.7,45.3c7.5-13.5,15.5-26.4,24.3-39.1c5.7,1.7,8.5,2.6,14.1,4.7
			c-13.5,17-25.5,34.5-36.4,53.3c-5-1.4-7.6-2-12.7-2.9c-0.6-21.4-2.8-42.2-6.7-63.2C985.8,335.8,988.8,336.2,994.7,337.1z"/>
		<path d="M1065.3,390c-3.2,4.4-4.8,6.5-8,10.9c-7.6-5.2-11.6-7.6-19.8-11.7c-2.2,4.1-3.3,6.2-5.6,10.3c8.2,4.1,12.2,6.4,19.7,11.8
			c-3.2,4.3-4.8,6.5-8,10.8c-8.2-6-18-11.3-27.4-15c8.5-18.9,17-37.8,25.5-56.7c13.7,6.1,26.3,12.9,38.8,21.2
			c-3.2,4.3-4.8,6.5-8,10.9c-9-6.3-13.8-9.1-23.6-14c-2,3.6-2.9,5.5-4.9,9.1C1052.9,381.9,1057.2,384.4,1065.3,390z"/>
		<path d="M1088,377.1c4.7,3.7,7,5.6,11.4,9.7c-11.2,11.9-22.5,23.9-33.7,35.8c6.2,5.7,9.1,8.7,14.4,15.4c-4.2,3.4-6.3,5.1-10.5,8.5
			c-5.9-7.6-13.5-15-21.2-20.8C1061.6,409.5,1074.8,393.3,1088,377.1z"/>
		<path d="M1095.6,428.6c3.7-2.9,7.6-5.1,11.8-6.4c4.1-1.2,8.1-1.7,12.2-1.1c3.9,0.6,7.7,2.1,11.2,4.7c3.4,2.5,6.4,6,8.6,10.3
			c2.3,4.3,3.5,8.9,3.7,13.4c0.2,4.5-0.6,8.9-2.2,12.8c-1.6,3.8-4.2,7.4-7.5,10.3c-3.3,2.9-7.2,5.1-11.7,6.6
			c-4.6,1.6-8.9,2.4-13.1,2.4c-4.2,0.1-8.1-0.5-11.5-1.5c-3.5-1.1-6.6-2.6-9.2-4.6c-2.6-2-4.7-4.5-6.2-7.4c-1.5-3-2.3-6-2.4-9.3
			c-0.1-3.3,0.5-6.7,1.6-10.1c1.1-3.4,2.9-6.9,5.4-10.4C1088.8,434.9,1091.8,431.6,1095.6,428.6z M1103.2,439.3
			c-2.4,1.6-4.4,3.4-6,5.3c-1.6,1.9-2.9,3.8-3.7,5.7c-0.8,1.9-1.2,3.9-1.2,5.8c0,1.9,0.4,3.7,1.3,5.5c0.9,1.7,2.2,3.2,3.8,4.3
			c1.5,1,3.3,1.8,5.4,2.2c2,0.4,4.3,0.4,6.8,0.1c2.3-0.3,4.9-1.1,7.5-2.2c2.5-1.1,4.8-2.5,6.6-4.2c1.8-1.7,3.3-3.6,4.2-5.7
			c1-2.1,1.5-4.3,1.5-6.5c0-2.3-0.7-4.7-1.8-6.8c-1.2-2.2-2.7-4-4.5-5.2c-1.9-1.3-3.9-2-6.1-2.3s-4.5,0-6.8,0.7
			C1107.9,436.6,1105.5,437.8,1103.2,439.3z"/>
		<path d="M1153.1,476c3.4,12.5,5.6,25.2,6.7,38.1c0.3,3.1,0.1,6.2-0.4,9c-0.6,2.8-1.6,5.4-3,7.3c-1.4,2.1-3.4,3.7-5.7,4.9
			c-2.3,1.1-5.1,1.7-8.2,1.7s-5.7-0.5-7.9-1.2c-2.2-0.8-4.1-2.1-5.6-3.6c-1.5-1.6-2.9-3.5-4-5.6c-1.1-2.2-2.2-4.8-3.1-7.5
			c-2.3-7.1-3.7-10.5-6.5-16.8c-7.6,1.7-11.4,2.5-19,4.2c-0.9-4.9-1.4-7.3-2.7-11.9C1113.6,488.4,1133.3,482.2,1153.1,476z
			 M1141.5,519.5c1.4-0.1,2.7-0.8,3.7-1.9c0.9-1.1,1.3-2.7,1.2-4.4c-0.7-7.1-1.2-10.5-2.4-17.2c-5.9,1.3-8.8,1.9-14.7,3.2
			c2.1,5.3,3,8.1,4.8,13.9c0.7,2.6,1.8,4.4,3.1,5.2C1138.4,519.2,1139.8,519.7,1141.5,519.5z"/>
	</g>
</g>
<g class="st0">
	<g class="st1">
		<path d="M1162.2,564.8c-12,2-24.1,3.3-36.3,4.2c11.6,4,23,8.5,34.3,13.4c-1.1,7-1.7,10.5-3.3,17.1c-12.3-0.7-24.6-1.9-36.8-3.6
			c11.1,6,21.9,12.5,32.4,19.4c-2,6.4-3.2,9.5-5.7,15.6c-17-13.3-34.5-25.4-52.9-36.5c1.4-4.5,2.1-6.8,3.2-11.5
			c13.1,1.6,26.2,2.6,39.3,3c-12.2-5.3-24.6-10.2-37.1-14.5c0.8-5,1-7.5,1.4-12.8c21.2-2.8,41.6-7.1,62.1-13.2
			C1163,553.4,1162.8,557.2,1162.2,564.8z"/>
		<path d="M1101.5,661c-4.2-3.4-6.3-5.1-10.5-8.6c6-7.4,8.7-11.3,13.5-19.8c-4-2.4-6.1-3.7-10.1-6.1c-4.8,8.5-7.6,12.4-13.6,19.7
			c-4.1-3.5-6.2-5.2-10.3-8.6c7-9.2,12.2-17.6,17.6-27.9c18.6,9.3,37.3,18.7,55.9,28c-6.6,14.1-14.8,27.6-24.8,39.5
			c-4.2-3.5-6.3-5.2-10.4-8.6c6.1-7.2,11.7-15.4,16.3-23.6c-3.6-2.1-5.3-3.2-8.9-5.4C1110.9,648.8,1107.9,653.1,1101.5,661z"/>
		<path d="M1065.4,702.6c-1.6-2.3-2.7-4.8-3.3-7c-0.6-2.4-0.6-4.8-0.2-7.1c-1.1,0.1-2.4,0.1-3.6-0.1c-1.2-0.2-2.5-0.7-3.6-1.3
			c-1.2-0.6-2.5-1.6-3.6-2.7c-1.2-1.1-2.3-2.6-3.4-4.3c-1.7-2.6-2.9-5-3.6-7.2c-0.7-2.2-1-4.2-0.9-5.9c0.1-1.7,0.6-3.3,1.4-4.6
			c0.8-1.3,1.8-2.4,3.1-3.4c8.1-5.9,11.9-9.3,18.7-16.8c15.5,14.1,31,28.1,46.5,42.2c-8,8.2-15.8,15.3-24.7,22.5
			c-1.8,1.4-3.8,2.5-5.7,3.2c-1.9,0.7-4.1,0.9-6,0.7c-1.9-0.2-3.9-1.1-5.8-2.3C1068.9,707.1,1067.2,705.2,1065.4,702.6z M1076,687.4
			c-0.9,1.2-1.3,2.4-1.2,3.7c0.1,1.2,0.5,2.4,1.2,3.4c0.8,1.1,1.9,1.6,3,1.6c1.1,0,2.2-0.4,3.1-1.1c4.7-3.7,7-5.6,11.3-9.7
			c-3.9-4.1-5.8-6.1-9.7-10.1C1081,680.2,1079.4,682.6,1076,687.4z M1059,675.3c0.6,0.8,1.3,1.5,2.1,1.9c0.7,0.4,1.6,0.7,2.3,0.8
			c0.7,0.1,1.6,0,2.3-0.2c0.8-0.2,1.5-0.5,2.2-0.8c2.9-4.6,4.2-6.9,6.6-11.7c-2.5-2.6-3.8-3.9-6.3-6.6c-3.5,3.2-5.3,4.8-9,7.7
			c-1.2,1-2,2.1-2.2,3.7C1056.9,671.6,1057.5,673.3,1059,675.3z"/>
		<path d="M1046.9,730.8c-10.1,4.4-15.4,6.2-26,9.2c-3.7,1.1-7.4,1.2-10.7,0.3c-3.3-0.8-6.4-2.5-8.9-4.8c-2.6-2.3-4.8-5.2-6.5-8.7
			c-1.7-3.5-2.9-7.5-3.7-11.8c-0.8-4.5-1.1-8.7-0.9-12.5c0.2-3.9,0.9-7.5,2-10.4c1.1-3,2.7-5.6,4.7-7.6c2-2,4.5-3.4,7.5-4.3
			c6.6-2,9.8-3.1,16-5.8C1029.3,693.3,1038.1,712.1,1046.9,730.8z M1015.7,690.7c-2.5,0.9-3.8,1.3-6.4,2.1c-1.7,0.5-3,1.4-4.1,2.7
			c-1,1.2-1.7,2.8-2.2,4.6c-0.4,1.7-0.6,3.8-0.5,6c0.1,2.2,0.4,4.4,1.1,6.8c0.6,2.3,1.4,4.4,2.6,6.3c1.1,1.8,2.4,3.4,3.9,4.6
			c1.5,1.2,3.3,2.1,5.2,2.5c1.9,0.4,4,0.2,6.2-0.4c2.7-0.8,4.1-1.3,6.8-2.2C1024.1,712.7,1019.9,701.7,1015.7,690.7z"/>
		<path d="M946.8,724.4c0.4-5.3,0.6-8,1-13.3c9.2,0.6,13.9,0.6,23.1,0.1c-0.3-4.6-0.5-7-0.8-11.6c-9.2,0.5-13.9,0.5-23.1-0.2
			c0.4-5.3,0.7-7.9,1.1-13.2c10.2,0.9,21.3,0.6,31.5-0.8c2.8,20.4,5.7,40.8,8.5,61.1c-15,1.5-29.4,1.8-44.5,1.2
			c0.4-5.3,0.6-8,1.1-13.3c11,0.8,16.6,0.8,27.6,0.2c-0.3-4.1-0.4-6.1-0.7-10.2C961.7,725.1,956.7,725.1,946.8,724.4z"/>
		<path d="M923.2,745.4c-1.6-15.1-2.5-30.1-2.7-45.3c-7.5,13.5-15.5,26.4-24.3,39.1c-5.7-1.7-8.5-2.6-14.1-4.7
			c13.5-17,25.5-34.5,36.4-53.3c5,1.4,7.6,2,12.7,2.9c0.6,21.4,2.8,42.2,6.7,63.2C932.1,746.7,929.1,746.4,923.2,745.4z"/>
		<path d="M852.5,692.5c3.2-4.4,4.8-6.5,8-10.9c7.6,5.2,11.6,7.6,19.8,11.7c2.2-4.1,3.3-6.2,5.6-10.3c-8.2-4.1-12.2-6.4-19.7-11.8
			c3.2-4.3,4.8-6.5,8-10.8c8.2,6,18,11.3,27.4,15c-8.5,18.9-17,37.8-25.5,56.7c-13.7-6.1-26.3-12.9-38.8-21.2
			c3.2-4.3,4.8-6.5,8-10.9c9,6.3,13.8,9.1,23.6,14c2-3.6,2.9-5.5,4.9-9.1C865,700.6,860.7,698.1,852.5,692.5z"/>
		<path d="M829.9,705.5c-4.7-3.7-7-5.6-11.4-9.7c11.2-11.9,22.5-23.9,33.7-35.8c-6.2-5.7-9.1-8.7-14.4-15.4
			c4.2-3.4,6.3-5.1,10.5-8.5c5.9,7.6,13.5,15,21.2,20.8C856.2,673,843.1,689.3,829.9,705.5z"/>
		<path d="M822.2,653.9c-3.7,2.9-7.6,5.1-11.8,6.4c-4.1,1.2-8.1,1.7-12.2,1.1c-3.9-0.6-7.7-2.1-11.2-4.7c-3.4-2.5-6.4-6-8.6-10.3
			c-2.3-4.3-3.5-8.9-3.7-13.4c-0.2-4.5,0.6-8.9,2.2-12.8c1.6-3.8,4.2-7.4,7.5-10.3c3.3-2.9,7.2-5.1,11.7-6.6
			c4.6-1.6,8.9-2.4,13.1-2.4c4.2-0.1,8.1,0.5,11.5,1.5c3.5,1.1,6.6,2.6,9.2,4.6c2.6,2,4.7,4.5,6.2,7.4c1.5,3,2.3,6,2.4,9.3
			c0.1,3.3-0.5,6.7-1.6,10.1c-1.1,3.4-2.9,6.9-5.4,10.4C829.1,647.6,826.1,650.9,822.2,653.9z M814.6,643.2c2.4-1.6,4.4-3.4,6-5.3
			c1.6-1.9,2.9-3.8,3.7-5.7c0.8-1.9,1.2-3.9,1.2-5.8c0-1.9-0.4-3.7-1.3-5.5c-0.9-1.7-2.2-3.2-3.8-4.3c-1.5-1-3.3-1.8-5.4-2.2
			c-2-0.4-4.3-0.4-6.8-0.1c-2.3,0.3-4.9,1.1-7.5,2.2c-2.5,1.1-4.8,2.5-6.6,4.2c-1.8,1.7-3.3,3.6-4.2,5.7c-1,2.1-1.5,4.3-1.5,6.5
			c0,2.3,0.7,4.7,1.8,6.8c1.2,2.2,2.7,4,4.5,5.2c1.9,1.3,3.9,2,6.1,2.3c2.2,0.2,4.5,0,6.8-0.7C809.9,645.9,812.3,644.8,814.6,643.2z
			"/>
		<path d="M764.8,606.5c-3.4-12.5-5.6-25.2-6.7-38.1c-0.3-3.1-0.1-6.2,0.4-9c0.6-2.8,1.6-5.4,3-7.3c1.4-2.1,3.4-3.7,5.7-4.9
			c2.3-1.1,5.1-1.7,8.2-1.7s5.7,0.5,7.9,1.2c2.2,0.8,4.1,2.1,5.6,3.6c1.5,1.6,2.9,3.5,4,5.6c1.1,2.2,2.2,4.8,3.1,7.5
			c2.3,7.1,3.7,10.5,6.5,16.8c7.6-1.7,11.4-2.5,19-4.2c0.9,4.9,1.4,7.3,2.7,11.9C804.3,594.1,784.5,600.3,764.8,606.5z M776.3,563
			c-1.4,0.1-2.7,0.8-3.7,1.9c-0.9,1.1-1.3,2.7-1.2,4.4c0.7,7.1,1.2,10.5,2.4,17.2c5.9-1.3,8.8-1.9,14.7-3.2c-2.1-5.3-3-8.1-4.8-13.9
			c-0.7-2.6-1.8-4.4-3.1-5.2C779.5,563.3,778,562.8,776.3,563z"/>
	</g>
</g>
<g>
	<g>
		<path d="M761.3,534c0.4-17.6,1.6-35.1,5.7-52.3c0.8-3.7,2.1-7.1,3.8-10c1.6-2.8,3.7-5.2,5.8-6.7c2.2-1.6,4.8-2.5,7.6-2.7
			c2.7-0.2,5.9,0.4,9,1.7c3.2,1.3,5.7,2.9,7.6,4.6c2,1.8,3.4,3.8,4.4,6c1,2.3,1.7,4.9,2,7.6c0.3,2.8,0.5,6.1,0.4,9.5
			c-0.2,9,0,13.5,0.9,22.8c8.4,1.1,12.6,1.6,21,2.7c-0.7,6.5-0.8,9.8-0.8,16.7C806.2,534,783.7,534,761.3,534z M787.7,483.3
			c-1.5-0.4-3.1-0.3-4.4,0.6c-1.4,0.9-2.3,2.5-2.8,4.5c-1.8,8.5-2.5,13-3.5,22.2c6.5,0.8,9.7,1.2,16.2,2.1c-0.4-7.7-0.4-11.5-0.1-19
			c0.2-3.3-0.2-5.8-1.3-7.3C790.8,484.9,789.5,483.8,787.7,483.3z"/>
		<path d="M779.4,444.8c6.7-13.5,14.1-25.7,23.1-37.8c2.1-2.6,4.5-4.8,7-6.4c2.5-1.6,5.2-2.6,7.7-2.9c2.6-0.3,5.3,0,7.9,1.1
			c2.6,1,5.2,2.9,7.6,5.3c3.3,3.3,5.3,6.5,6.2,9.4c1,3.1,1.2,6.1,0.6,9.3c9.9,4.2,19.7,8.4,29.1,13.8c-4,3.7-5.9,5.6-9.5,9.8
			c-9.7-4.2-14.7-6.1-24.9-9.2c-2.3,5.5-3.4,8.3-5.1,14.1c7.3,4.6,10.9,6.9,18.2,11.5c-2.8,4.7-4.1,7.1-6.4,12.3
			C820.2,465,799.8,454.9,779.4,444.8z M820.8,417.4c-1.2-1-2.7-1.6-4.2-1.5c-1.5,0.1-3,1-4.1,2.4c-4.6,6-6.8,9.2-10.8,15.8
			c5.6,3.5,8.4,5.3,14,8.9c2.3-6.1,3.6-9.1,6.4-14.9c1.3-2.6,1.8-4.7,1.4-6.4C823.1,420.1,822.2,418.6,820.8,417.4z"/>
		<path d="M849,407.9c-3.4-3.9-5.9-8.1-7.3-12.7c-1.4-4.5-1.8-9.1-0.9-13.8c0.8-4.5,2.8-9,6.1-13.2c3.2-4.1,7.5-7.7,12.7-10.5
			c5.3-2.8,10.8-4.3,16.1-4.7c5.3-0.4,10.4,0.4,14.8,2.1c4.3,1.7,8.3,4.6,11.4,8.1c3.1,3.6,5.4,8,7,12.8c1.6,5,2.3,9.8,2.2,14.3
			c-0.1,4.6-0.8,8.9-2.1,12.6c-1.3,3.8-3.1,7.2-5.4,10c-2.3,2.9-5.1,5.2-8.6,7c-3.4,1.8-7,2.8-10.7,3.2c-3.8,0.4-7.8,0-11.7-1
			c-4-1-8.1-2.6-12.2-5C856.4,414.9,852.6,411.9,849,407.9z M862,398c1.9,2.6,3.9,4.6,6.1,6.3c2.1,1.6,4.4,2.9,6.7,3.7
			c2.3,0.8,4.5,1.1,6.7,1c2.2-0.1,4.3-0.6,6.5-1.7c2-1.1,3.7-2.5,5-4.3c1.2-1.7,2.2-3.7,2.7-6c0.5-2.3,0.6-4.8,0.3-7.4
			c-0.3-2.6-1-5.4-2.3-8.3c-1.2-2.7-2.7-5.2-4.5-7.2c-1.8-2-4-3.5-6.4-4.5c-2.4-1-4.9-1.5-7.6-1.4c-2.7,0.1-5.5,1-8.2,2.4
			c-2.7,1.4-4.9,3.2-6.4,5.3c-1.6,2.2-2.5,4.5-2.9,7c-0.4,2.5-0.1,5.1,0.6,7.6C859,393,860.2,395.6,862,398z"/>
		<path d="M925.7,387.4c1.6,1.4,3.3,2.4,4.9,3.2c1.6,0.7,3.4,1,5.3,0.8c1.2-0.2,2.3-0.6,3.2-1.3c0.9-0.6,1.5-1.5,2.1-2.6
			c0.5-1,0.9-2.2,1.1-3.5c0.2-1.2,0.2-2.6,0-4.1c-1.7-14.5-3.3-29-5-43.5c7.8-0.8,11.7-1,19.6-1.1c0.2,14.3,0.4,28.5,0.6,42.8
			c0.1,4.1-0.5,7.7-1.3,10.9c-0.9,3.3-2.2,6.2-3.9,8.6c-1.6,2.4-3.7,4.4-6,5.8c-2.3,1.4-5.1,2.3-8.1,2.6c-2.7,0.3-5.4,0-8.1-0.8
			c-2.7-0.8-5.6-2.2-8.6-4.3C923,395.5,923.8,392.8,925.7,387.4z"/>
		<path d="M1017.3,369.7c-1.9,5.5-2.9,8.3-4.8,13.8c-9.2-3-19.2-5.2-28.8-6.4c-0.8,5-1.1,7.5-1.9,12.6c9.5,1.2,19.3,3.4,28.4,6.5
			c-2,5.5-3,8.2-5,13.7c-12.4-4.1-25.4-6.4-38.5-7c1.2-22.4,2.3-44.9,3.5-67.3c19.4,0.7,38.9,4.3,57.3,10.3c-2,5.5-3,8.3-4.9,13.8
			c-11.4-3.7-23.1-6.3-35-7.9c-0.7,4.4-1,6.6-1.7,11C996.5,364.5,1007,366.4,1017.3,369.7z"/>
		<path d="M1024.1,380.5c2-4.8,4.7-8.9,8.2-12.2c3.5-3.3,7.5-5.7,12.2-7.2c4.5-1.4,9.5-1.8,14.8-0.9c5.2,0.8,10.4,2.7,15.4,5.9
			c6.5,4.2,11.2,9.5,13.7,15.2c2.5,5.7,3.3,12.2,2.3,19.2c-6.2-0.5-9.3-0.6-15.4-0.5c0.9-4.2,0.7-8.2-0.4-11.8
			c-1.2-3.7-4-7.1-8.1-9.7c-2.6-1.7-5.3-2.6-8-3c-2.7-0.3-5.3-0.1-7.8,0.8c-2.6,0.9-4.8,2.2-6.9,4c-2.1,1.9-3.8,4.2-5.2,6.8
			c-1.4,2.6-2.3,5.3-2.8,7.9c-0.5,2.5-0.6,5.1-0.2,7.4c0.3,2.3,1.1,4.6,2.2,6.4c1.1,1.8,2.7,3.5,4.7,4.8c1.6,1,3.2,1.8,4.9,2.3
			c1.5,0.4,3.2,0.6,5,0.6c1.6,0,3.5-0.3,5.4-0.8c1.8-0.5,3.7-1.2,5.8-2c0.4,5.6,0.4,8.4,0.3,14c-6.2,1.7-11.6,2.5-16.4,2.4
			c-4.9-0.2-9.4-1.6-13.8-4.5c-3.2-2.1-5.7-4.6-7.8-7.6c-2.1-3.1-3.6-6.6-4.5-10.4c-1-3.9-1.3-8.2-1.1-12.8
			C1021,390.1,1022,385.4,1024.1,380.5z"/>
		<path d="M1119.7,436.3c-15.3,9.3-30.5,18.7-45.8,28c-2.8-4.7-4.3-7-7.5-11.3c14.3-10.9,28.5-21.7,42.8-32.6
			c-5.5-7.3-8.4-10.7-14.7-17.1c4.2-4.1,6.4-6.2,10.6-10.3c16.9,17.1,28.8,36.7,38.4,58.6c-5.4,2.4-8.1,3.6-13.4,6
			C1126.5,448.6,1124.4,444.3,1119.7,436.3z"/>
		<path d="M1106,482.8c-1.6,3.6-2.6,7.5-3.3,11.7c-0.6,4.1-0.6,8.3,0.1,12.4c0.4,2.7,1.1,4.7,2.1,5.9c0.9,1.2,2.2,1.7,3.7,1.5
			c1.8-0.2,3.3-1.3,4.2-2.9c0.9-1.7,1.6-4.7,2-8.5c0.3-3.4,0.6-6.8,0.9-10.3c0.2-3.5,0.7-6.9,1.5-10c0.8-3.1,2.2-6,4-8.6
			c1.8-2.6,4.5-4.7,8.4-6.2c3.3-1.3,6.5-1.7,9.5-1c2.9,0.7,5.6,2.1,8.1,4.5c2.4,2.3,4.5,5.5,6.2,9.3c1.7,3.8,3,8.1,3.8,12.9
			c0.6,3.3,0.9,6.6,0.9,9.7c0,3.1-0.1,6.3-0.5,9.4c-0.4,3-1.2,6.2-2.1,9.3c-0.9,2.9-2.1,6.1-3.6,9.4c-5.5-3.9-8.2-5.7-13.8-8.9
			c1.9-3.6,3.3-7.7,4-12c0.8-4.4,0.8-9,0.2-13.3c-0.2-1.4-0.5-2.9-0.8-4c-0.4-1.3-0.9-2.4-1.4-3.2c-0.6-0.9-1.3-1.5-1.9-1.9
			c-0.7-0.4-1.4-0.6-2.3-0.4s-1.6,0.7-2,1.1c-0.5,0.4-1.1,1.2-1.5,2.1c-0.3,0.9-0.7,2.4-0.9,4.1c-0.2,1.6-0.5,3.9-0.6,6.8
			c-0.3,4.3-0.9,8.7-1.6,12.6c-0.7,3.8-2,7.4-3.5,10.3c-1.5,2.9-3.6,5.3-6.1,6.9c-2.5,1.6-5.7,2.4-9.4,2.4c-3.6,0-6.6-0.8-9.1-2.1
			c-2.6-1.4-4.8-3.3-6.6-5.5c-1.8-2.3-3.2-4.9-4.4-7.9c-1.1-3-2-6.2-2.5-9.6c-0.8-4.9-0.9-9.5-0.4-14c0.6-4.6,1.6-9.1,3.2-13.6
			C1096.7,481.6,1099.8,481.9,1106,482.8z"/>
	</g>
</g>
<g>
	<g>
		<path d="M1158.7,546.5c-0.4,17.6-1.6,35.1-5.7,52.3c-0.8,3.7-2.1,7.1-3.8,10c-1.6,2.8-3.7,5.2-5.8,6.7c-2.2,1.6-4.8,2.5-7.6,2.7
			c-2.7,0.2-5.9-0.4-9-1.7c-3.2-1.3-5.7-2.9-7.6-4.6c-2-1.8-3.4-3.8-4.4-6c-1-2.3-1.7-4.9-2-7.6c-0.3-2.8-0.5-6.1-0.4-9.5
			c0.2-9,0-13.5-0.9-22.8c-8.4-1.1-12.6-1.6-21-2.7c0.7-6.5,0.8-9.8,0.8-16.7C1113.8,546.5,1136.3,546.5,1158.7,546.5z
			 M1132.3,597.2c1.5,0.4,3.1,0.3,4.4-0.6c1.4-0.9,2.3-2.5,2.8-4.5c1.8-8.5,2.5-13,3.5-22.2c-6.5-0.8-9.7-1.2-16.2-2.1
			c0.4,7.7,0.4,11.5,0.1,19c-0.2,3.3,0.2,5.8,1.3,7.3C1129.2,595.6,1130.5,596.7,1132.3,597.2z"/>
		<path d="M1140.6,635.7c-6.7,13.5-14.1,25.7-23.1,37.8c-2.1,2.6-4.5,4.8-7,6.4c-2.5,1.6-5.2,2.6-7.7,2.9c-2.6,0.3-5.3,0-7.9-1.1
			c-2.6-1-5.2-2.9-7.6-5.3c-3.3-3.3-5.3-6.5-6.2-9.4c-1-3.1-1.2-6.1-0.6-9.3c-9.9-4.2-19.7-8.4-29.1-13.8c4-3.7,5.9-5.6,9.5-9.8
			c9.7,4.2,14.7,6.1,24.9,9.2c2.3-5.5,3.4-8.3,5.1-14.1c-7.3-4.6-10.9-6.9-18.2-11.5c2.8-4.7,4.1-7.1,6.4-12.3
			C1099.8,615.5,1120.2,625.6,1140.6,635.7z M1099.2,663.1c1.2,1,2.7,1.6,4.2,1.5c1.5-0.1,3-1,4.1-2.4c4.6-6,6.8-9.2,10.8-15.8
			c-5.6-3.5-8.4-5.3-14-8.9c-2.3,6.1-3.6,9.1-6.4,14.9c-1.3,2.6-1.8,4.7-1.4,6.4C1096.9,660.4,1097.8,661.9,1099.2,663.1z"/>
		<path d="M1071,672.6c3.4,3.9,5.9,8.1,7.3,12.7c1.4,4.5,1.8,9.1,0.9,13.8c-0.8,4.5-2.8,9-6.1,13.2c-3.2,4.1-7.5,7.7-12.7,10.5
			c-5.3,2.8-10.8,4.3-16.1,4.7c-5.3,0.4-10.4-0.4-14.8-2.1c-4.3-1.7-8.3-4.6-11.4-8.1c-3.1-3.6-5.4-8-7-12.8
			c-1.6-5-2.3-9.8-2.2-14.3c0.1-4.6,0.8-8.9,2.1-12.6c1.3-3.8,3.1-7.2,5.4-10c2.3-2.9,5.1-5.2,8.6-7c3.4-1.8,7-2.8,10.7-3.2
			c3.8-0.4,7.8,0,11.7,1c4,1,8.1,2.6,12.2,5C1063.6,665.5,1067.4,668.6,1071,672.6z M1058,682.4c-1.9-2.6-3.9-4.6-6.1-6.3
			c-2.1-1.6-4.4-2.9-6.7-3.7c-2.3-0.8-4.5-1.1-6.7-1c-2.2,0.1-4.3,0.6-6.5,1.7c-2,1.1-3.7,2.5-5,4.3c-1.2,1.7-2.2,3.7-2.7,6
			c-0.5,2.3-0.6,4.8-0.3,7.4c0.3,2.6,1,5.4,2.3,8.3c1.2,2.7,2.7,5.2,4.5,7.2c1.8,2,4,3.5,6.4,4.5c2.4,1,4.9,1.5,7.6,1.4
			c2.7-0.1,5.5-1,8.2-2.4c2.7-1.4,4.9-3.2,6.4-5.3c1.6-2.2,2.5-4.5,2.9-7c0.4-2.5,0.1-5.1-0.6-7.6
			C1061,687.5,1059.8,684.9,1058,682.4z"/>
		<path d="M994.3,693c-1.6-1.4-3.3-2.4-4.9-3.2c-1.6-0.7-3.4-1-5.3-0.8c-1.2,0.2-2.3,0.6-3.2,1.3c-0.9,0.6-1.5,1.5-2.1,2.6
			c-0.5,1-0.9,2.2-1.1,3.5c-0.2,1.2-0.2,2.6,0,4.1c1.7,14.5,3.3,29,5,43.5c-7.8,0.8-11.7,1-19.6,1.1c-0.2-14.3-0.4-28.5-0.6-42.8
			c-0.1-4.1,0.5-7.7,1.3-10.9c0.9-3.3,2.2-6.2,3.9-8.6c1.6-2.4,3.7-4.4,6-5.8c2.3-1.4,5.1-2.3,8.1-2.6c2.7-0.3,5.4,0,8.1,0.8
			c2.7,0.8,5.6,2.2,8.6,4.3C997,685,996.2,687.7,994.3,693z"/>
		<path d="M902.7,710.8c1.9-5.5,2.9-8.3,4.8-13.8c9.2,3,19.2,5.2,28.8,6.4c0.8-5,1.1-7.5,1.9-12.6c-9.5-1.2-19.3-3.4-28.4-6.5
			c2-5.5,3-8.2,5-13.7c12.4,4.1,25.4,6.4,38.5,7c-1.2,22.4-2.3,44.9-3.5,67.3c-19.4-0.7-38.9-4.3-57.3-10.3c2-5.5,3-8.3,4.9-13.8
			c11.4,3.7,23.1,6.3,35,7.9c0.7-4.4,1-6.6,1.7-11C923.5,716,913,714.1,902.7,710.8z"/>
		<path d="M895.9,700c-2,4.8-4.7,8.9-8.2,12.2c-3.5,3.3-7.5,5.7-12.2,7.2c-4.5,1.4-9.5,1.8-14.8,0.9c-5.2-0.8-10.4-2.7-15.4-5.9
			c-6.5-4.2-11.2-9.5-13.7-15.2c-2.5-5.7-3.3-12.2-2.3-19.2c6.2,0.5,9.3,0.6,15.4,0.5c-0.9,4.2-0.7,8.2,0.4,11.8
			c1.2,3.7,4,7.1,8.1,9.7c2.6,1.7,5.3,2.6,8,3c2.7,0.3,5.3,0.1,7.8-0.8c2.6-0.9,4.8-2.2,6.9-4c2.1-1.9,3.8-4.2,5.2-6.8
			c1.4-2.6,2.3-5.3,2.8-7.9c0.5-2.5,0.6-5.1,0.2-7.4c-0.3-2.3-1.1-4.6-2.2-6.4c-1.1-1.8-2.7-3.5-4.7-4.8c-1.6-1-3.2-1.8-4.9-2.3
			c-1.5-0.4-3.2-0.6-5-0.6c-1.6,0-3.5,0.3-5.4,0.8c-1.8,0.5-3.7,1.2-5.8,2c-0.4-5.6-0.4-8.4-0.3-14c6.2-1.7,11.6-2.5,16.4-2.4
			c4.9,0.2,9.4,1.6,13.8,4.5c3.2,2.1,5.7,4.6,7.8,7.6c2.1,3.1,3.6,6.6,4.5,10.4c1,3.9,1.3,8.2,1.1,12.8
			C899,690.3,898,695.1,895.9,700z"/>
		<path d="M800.3,644.2c15.3-9.3,30.5-18.7,45.8-28c2.8,4.7,4.3,7,7.5,11.3c-14.3,10.9-28.5,21.7-42.8,32.6
			c5.5,7.3,8.4,10.7,14.7,17.1c-4.2,4.1-6.4,6.2-10.6,10.3c-16.9-17.1-28.8-36.7-38.4-58.6c5.4-2.4,8.1-3.6,13.4-6
			C793.5,631.9,795.6,636.1,800.3,644.2z"/>
		<path d="M814,597.7c1.6-3.6,2.6-7.5,3.3-11.7c0.6-4.1,0.6-8.3-0.1-12.4c-0.4-2.7-1.1-4.7-2.1-5.9c-0.9-1.2-2.2-1.7-3.7-1.5
			c-1.8,0.2-3.3,1.3-4.2,2.9c-0.9,1.7-1.6,4.7-2,8.5c-0.3,3.4-0.6,6.8-0.9,10.3c-0.2,3.5-0.7,6.9-1.5,10c-0.8,3.1-2.2,6-4,8.6
			c-1.8,2.6-4.5,4.7-8.4,6.2c-3.3,1.3-6.5,1.7-9.5,1c-2.9-0.7-5.6-2.1-8.1-4.5c-2.4-2.3-4.5-5.5-6.2-9.3c-1.7-3.8-3-8.1-3.8-12.9
			c-0.6-3.3-0.9-6.6-0.9-9.7c0-3.1,0.1-6.3,0.5-9.4c0.4-3,1.2-6.2,2.1-9.3c0.9-2.9,2.1-6.1,3.6-9.4c5.5,3.9,8.2,5.7,13.8,8.9
			c-1.9,3.6-3.3,7.7-4,12c-0.8,4.4-0.8,9-0.2,13.3c0.2,1.4,0.5,2.9,0.8,4c0.4,1.3,0.9,2.4,1.4,3.2c0.6,0.9,1.3,1.5,1.9,1.9
			c0.7,0.4,1.4,0.6,2.3,0.4s1.6-0.7,2-1.1c0.5-0.4,1.1-1.2,1.5-2.1c0.3-0.9,0.7-2.4,0.9-4.1c0.2-1.6,0.5-3.9,0.6-6.8
			c0.3-4.3,0.9-8.7,1.6-12.6c0.7-3.8,2-7.4,3.5-10.3c1.5-2.9,3.6-5.3,6.1-6.9c2.5-1.6,5.7-2.4,9.4-2.4c3.6,0,6.6,0.8,9.1,2.1
			c2.6,1.4,4.8,3.3,6.6,5.5c1.8,2.3,3.2,4.9,4.4,7.9c1.1,3,2,6.2,2.5,9.6c0.8,4.9,0.9,9.5,0.4,14c-0.6,4.6-1.6,9.1-3.2,13.6
			C823.3,598.9,820.2,598.6,814,597.7z"/>
	</g>
</g>
</svg>
